<svg xmlns="http://www.w3.org/2000/svg" width="11" height="1598" viewBox="0 0 11 1598" fill="none"><path d="M5.5 1597.33C8.44552 1597.33 10.8333 1594.95 10.8333 1592C10.8333 1589.05 8.44552 1586.67 5.5 1586.67C2.55448 1586.67 0.166667 1589.05 0.166667 1592C0.166667 1594.95 2.55448 1597.33 5.5 1597.33ZM5.5 11.3333C8.44552 11.3333 10.8333 8.94552 10.8333 6C10.8333 3.05448 8.44552 0.666667 5.5 0.666667C2.55448 0.666667 0.166667 3.05448 0.166667 6C0.166667 8.94552 2.55448 11.3333 5.5 11.3333ZM5.5 1592H6.5L6.5 6H5.5H4.5L4.5 1592H5.5Z" fill="black"></path></svg>